# xmcd CD database file
#
# Track frame offsets:
#	150
#	20482
#	37595
#	56767
#	77882
#	98775
#	122810
#	140332
#	158185
#	169220
#	189365
#	210697
#	224182
#
# Disc length: 3277 seconds
#
# Revision: 2
# Processed by: cddbd v1.5.2PL0 Copyright (c) Steve Scherf et al.
# Submitted via: CDex 1.78
#
DISCID=b70ccb0d
DTITLE=Barney Bentall And The Legendary Hearts - Till Tomorrow
DYEAR=1997
DGENRE=Rock
TTITLE0=Shoulder Of The Road
TTITLE1=So Electric
TTITLE2=Take Me To The Moon
TTITLE3=Love Is Gone
TTITLE4=Till Tomorrow
TTITLE5=Stars Shine Bright
TTITLE6=You Should Be Having Fun
TTITLE7=My Shadow And Me
TTITLE8=She Comes And Goes
TTITLE9=Making The Bed (When The House Is On Fire)
TTITLE10=Nobody's Counting
TTITLE11=Always You
TTITLE12=All I Ever Wanted
EXTD=YEAR: 1997
EXTT0=
EXTT1=
EXTT2=
EXTT3=
EXTT4=
EXTT5=
EXTT6=
EXTT7=
EXTT8=
EXTT9=
EXTT10=
EXTT11=
EXTT12=
PLAYORDER=
